<svg width="507" height="104" viewBox="0 0 507 104" fill="none" xmlns="http://www.w3.org/2000/svg">
<rect width="1440" height="820" transform="translate(-580 -305)" fill="white"/>
<path d="M43.136 30.568C59.552 30.568 67.76 40.504 67.76 60.376V93.64C67.76 96.808 66.752 99.304 64.736 101.128C62.816 102.952 60.176 103.864 56.816 103.864C53.456 103.864 50.816 102.952 48.896 101.128C46.976 99.304 46.016 96.808 46.016 93.64V60.088C46.016 55.864 45.104 52.744 43.28 50.728C41.552 48.616 38.816 47.56 35.072 47.56C30.56 47.56 26.912 49 24.128 51.88C21.44 54.76 20.096 58.6 20.096 63.4V93.64C20.096 96.808 19.136 99.304 17.216 101.128C15.296 102.952 12.656 103.864 9.296 103.864C5.936 103.864 3.248 102.952 1.232 101.128C-0.688 99.304 -1.648 96.808 -1.648 93.64V10.696C-1.648 7.71999 -0.64 5.31999 1.376 3.49599C3.488 1.67199 6.224 0.759995 9.584 0.759995C12.752 0.759995 15.296 1.62399 17.216 3.352C19.136 5.08 20.096 7.384 20.096 10.264V41.656C22.592 38.008 25.808 35.272 29.744 33.448C33.68 31.528 38.144 30.568 43.136 30.568ZM117.977 104.152C110.489 104.152 103.913 102.664 98.2486 99.688C92.5846 96.616 88.2166 92.344 85.1446 86.872C82.0726 81.304 80.5366 74.776 80.5366 67.288C80.5366 59.8 82.0726 53.32 85.1446 47.848C88.2166 42.28 92.5846 38.008 98.2486 35.032C103.913 32.056 110.489 30.568 117.977 30.568C125.465 30.568 132.041 32.056 137.705 35.032C143.369 38.008 147.737 42.28 150.809 47.848C153.881 53.32 155.417 59.8 155.417 67.288C155.417 74.776 153.881 81.304 150.809 86.872C147.737 92.344 143.369 96.616 137.705 99.688C132.041 102.664 125.465 104.152 117.977 104.152ZM117.977 87.592C128.537 87.592 133.817 80.824 133.817 67.288C133.817 60.472 132.425 55.384 129.641 52.024C126.953 48.664 123.065 46.984 117.977 46.984C107.417 46.984 102.137 53.752 102.137 67.288C102.137 80.824 107.417 87.592 117.977 87.592ZM262.283 37.192C263.147 35.176 264.347 33.64 265.883 32.584C267.419 31.528 269.051 31 270.779 31C273.467 31 275.867 31.912 277.979 33.736C280.091 35.56 281.147 37.816 281.147 40.504C281.147 41.656 280.859 42.952 280.283 44.392L256.667 97.384C255.803 99.496 254.411 101.128 252.491 102.28C250.571 103.336 248.555 103.864 246.443 103.864C244.235 103.864 242.171 103.336 240.251 102.28C238.427 101.128 237.083 99.496 236.219 97.384L220.811 61.528L205.979 97.384C205.115 99.496 203.771 101.128 201.947 102.28C200.123 103.336 198.059 103.864 195.755 103.864C193.547 103.864 191.483 103.336 189.563 102.28C187.643 101.128 186.251 99.496 185.387 97.384L161.915 44.392C161.339 43.048 161.051 41.752 161.051 40.504C161.051 37.816 162.155 35.56 164.363 33.736C166.667 31.912 169.259 31 172.139 31C174.059 31 175.787 31.528 177.323 32.584C178.955 33.64 180.203 35.176 181.067 37.192L196.475 75.928L212.171 37.48C213.035 35.464 214.283 33.928 215.915 32.872C217.643 31.72 219.515 31.144 221.531 31.144C223.547 31.144 225.419 31.672 227.147 32.728C228.875 33.784 230.171 35.368 231.035 37.48L247.019 75.928L262.283 37.192ZM350.485 0.759995C353.845 0.759995 356.533 1.67199 358.549 3.49599C360.661 5.31999 361.717 7.71999 361.717 10.696V93.64C361.717 96.712 360.709 99.208 358.693 101.128C356.773 102.952 354.181 103.864 350.917 103.864C347.653 103.864 345.013 102.952 342.997 101.128C341.077 99.208 340.117 96.712 340.117 93.64V92.488C338.005 96.136 334.981 99.016 331.045 101.128C327.205 103.144 322.837 104.152 317.941 104.152C311.893 104.152 306.469 102.616 301.669 99.544C296.965 96.376 293.269 92.008 290.581 86.44C287.989 80.776 286.693 74.296 286.693 67C286.693 59.704 287.989 53.32 290.581 47.848C293.269 42.28 296.965 38.008 301.669 35.032C306.373 32.056 311.797 30.568 317.941 30.568C322.741 30.568 327.061 31.576 330.901 33.592C334.837 35.608 337.861 38.44 339.973 42.088V10.264C339.973 7.384 340.933 5.08 342.853 3.352C344.773 1.62399 347.317 0.759995 350.485 0.759995ZM324.277 87.592C329.365 87.592 333.253 85.864 335.941 82.408C338.725 78.856 340.117 73.816 340.117 67.288C340.117 60.76 338.725 55.768 335.941 52.312C333.253 48.856 329.365 47.128 324.277 47.128C319.189 47.128 315.253 48.856 312.469 52.312C309.685 55.672 308.293 60.568 308.293 67C308.293 73.528 309.685 78.616 312.469 82.264C315.253 85.816 319.189 87.592 324.277 87.592ZM435.197 81.976C437.117 81.976 438.653 82.744 439.805 84.28C441.053 85.816 441.677 87.784 441.677 90.184C441.677 91.816 441.197 93.352 440.237 94.792C439.277 96.136 437.933 97.288 436.205 98.248C432.941 99.976 429.149 101.416 424.829 102.568C420.509 103.624 416.525 104.152 412.877 104.152C405.197 104.152 398.477 102.664 392.717 99.688C387.053 96.712 382.685 92.488 379.613 87.016C376.541 81.448 375.005 74.92 375.005 67.432C375.005 60.232 376.493 53.848 379.469 48.28C382.445 42.712 386.573 38.392 391.853 35.32C397.133 32.152 403.133 30.568 409.853 30.568C416.285 30.568 421.901 32.008 426.701 34.888C431.597 37.672 435.389 41.704 438.077 46.984C440.765 52.168 442.109 58.264 442.109 65.272C442.109 67.384 441.581 69.016 440.525 70.168C439.565 71.224 438.173 71.752 436.349 71.752H396.029C396.701 77.416 398.429 81.544 401.213 84.136C403.997 86.632 407.981 87.88 413.165 87.88C415.949 87.88 418.445 87.544 420.653 86.872C422.861 86.2 425.309 85.288 427.997 84.136C429.341 83.56 430.637 83.08 431.885 82.696C433.133 82.216 434.237 81.976 435.197 81.976ZM410.429 45.544C406.301 45.544 402.989 46.888 400.493 49.576C397.997 52.168 396.509 55.96 396.029 60.952H423.821C423.533 55.864 422.237 52.024 419.933 49.432C417.725 46.84 414.557 45.544 410.429 45.544ZM497.435 30.856C500.315 30.664 502.571 31.336 504.203 32.872C505.931 34.312 506.795 36.52 506.795 39.496C506.795 42.664 506.027 45.016 504.491 46.552C502.955 48.088 500.219 49.048 496.283 49.432L491.963 49.864C486.683 50.44 482.843 52.168 480.443 55.048C478.139 57.928 476.987 61.624 476.987 66.136V93.64C476.987 97 475.931 99.544 473.819 101.272C471.803 103 469.259 103.864 466.187 103.864C463.019 103.864 460.379 103 458.267 101.272C456.251 99.544 455.243 97 455.243 93.64V40.792C455.243 37.624 456.299 35.176 458.411 33.448C460.523 31.72 463.067 30.856 466.043 30.856C468.923 30.856 471.323 31.72 473.243 33.448C475.163 35.08 476.123 37.384 476.123 40.36V44.248C477.851 40.12 480.443 36.952 483.899 34.744C487.451 32.536 491.291 31.288 495.419 31L497.435 30.856Z" fill="#004DFC"/>
<path d="M158.448 104H116.89L141.493 87.095C142.201 86.6087 142.734 85.9076 143.012 85.0953L153.5 54.5L164.26 96.5113C165.232 100.306 162.366 104 158.448 104Z" fill="#004DFC" stroke="black" stroke-width="0.001"/>
</svg>
