<svg width="494" height="153" viewBox="0 0 494 153" fill="none" xmlns="http://www.w3.org/2000/svg">
<path d="M46.224 55.144C54.48 55.144 60.72 57.496 64.944 62.2C69.168 66.808 71.28 73.72 71.28 82.936V121.96C71.28 123.784 70.752 125.224 69.696 126.28C68.64 127.24 67.248 127.72 65.52 127.72C63.696 127.72 62.256 127.24 61.2 126.28C60.144 125.224 59.616 123.784 59.616 121.96V83.224C59.616 76.984 58.32 72.376 55.728 69.4C53.232 66.424 49.2 64.936 43.632 64.936C37.2 64.936 32.064 66.904 28.224 70.84C24.384 74.776 22.464 80.104 22.464 86.824V121.96C22.464 123.784 21.936 125.224 20.88 126.28C19.92 127.24 18.528 127.72 16.704 127.72C14.88 127.72 13.44 127.24 12.384 126.28C11.328 125.224 10.8 123.784 10.8 121.96V30.376C10.8 28.744 11.328 27.4 12.384 26.344C13.536 25.288 14.976 24.76 16.704 24.76C18.528 24.76 19.92 25.288 20.88 26.344C21.936 27.304 22.464 28.648 22.464 30.376V68.104C24.768 63.88 27.984 60.664 32.112 58.456C36.24 56.248 40.944 55.144 46.224 55.144ZM121.732 128.008C115.108 128.008 109.252 126.52 104.164 123.544C99.1718 120.568 95.2838 116.344 92.4998 110.872C89.8118 105.304 88.4678 98.872 88.4678 91.576C88.4678 84.28 89.8118 77.896 92.4998 72.424C95.2838 66.856 99.1718 62.584 104.164 59.608C109.252 56.632 115.108 55.144 121.732 55.144C128.356 55.144 134.212 56.632 139.3 59.608C144.388 62.584 148.276 66.856 150.964 72.424C153.748 77.896 155.14 84.28 155.14 91.576C155.14 98.872 153.748 105.304 150.964 110.872C148.276 116.344 144.388 120.568 139.3 123.544C134.212 126.52 128.356 128.008 121.732 128.008ZM121.732 118.36C128.644 118.36 133.924 116.104 137.572 111.592C141.316 106.984 143.188 100.312 143.188 91.576C143.188 83.032 141.316 76.456 137.572 71.848C133.828 67.144 128.548 64.792 121.732 64.792C114.916 64.792 109.636 67.144 105.892 71.848C102.148 76.456 100.276 83.032 100.276 91.576C100.276 100.216 102.1 106.84 105.748 111.448C109.492 116.056 114.82 118.36 121.732 118.36ZM267.579 59.176C268.539 56.872 270.123 55.72 272.331 55.72C273.771 55.72 275.067 56.2 276.219 57.16C277.371 58.12 277.947 59.32 277.947 60.76C277.947 61.432 277.803 62.152 277.515 62.92L253.611 123.4C253.035 124.648 252.171 125.656 251.019 126.424C249.963 127.096 248.763 127.432 247.419 127.432C246.171 127.432 244.971 127.096 243.819 126.424C242.763 125.656 241.947 124.648 241.371 123.4L221.499 72.856L201.771 123.4C201.291 124.648 200.475 125.656 199.323 126.424C198.171 127.096 196.923 127.432 195.579 127.432C194.331 127.432 193.131 127.096 191.979 126.424C190.827 125.656 189.963 124.648 189.387 123.4L165.483 63.064C165.195 62.296 165.051 61.624 165.051 61.048C165.051 59.512 165.675 58.216 166.923 57.16C168.267 56.104 169.707 55.576 171.243 55.576C173.547 55.576 175.179 56.728 176.139 59.032L195.867 112.168L216.171 59.464C216.747 58.216 217.515 57.256 218.475 56.584C219.531 55.912 220.635 55.576 221.787 55.576C223.035 55.576 224.139 55.912 225.099 56.584C226.155 57.256 226.923 58.216 227.403 59.464L247.707 112.024L267.579 59.176ZM348.354 24.76C350.178 24.76 351.618 25.288 352.674 26.344C353.73 27.4 354.258 28.744 354.258 30.376V121.96C354.258 123.688 353.73 125.08 352.674 126.136C351.618 127.192 350.178 127.72 348.354 127.72C346.53 127.72 345.09 127.192 344.034 126.136C343.074 125.08 342.594 123.688 342.594 121.96V114.184C340.482 118.6 337.362 122.008 333.234 124.408C329.202 126.808 324.45 128.008 318.978 128.008C312.834 128.008 307.41 126.472 302.706 123.4C298.002 120.328 294.354 116.056 291.762 110.584C289.17 105.016 287.874 98.584 287.874 91.288C287.874 84.088 289.17 77.752 291.762 72.28C294.354 66.808 298.002 62.584 302.706 59.608C307.41 56.632 312.834 55.144 318.978 55.144C324.45 55.144 329.202 56.344 333.234 58.744C337.362 61.144 340.482 64.552 342.594 68.968V30.376C342.594 28.648 343.074 27.304 344.034 26.344C345.09 25.288 346.53 24.76 348.354 24.76ZM321.282 118.36C328.098 118.36 333.33 116.056 336.978 111.448C340.722 106.744 342.594 100.12 342.594 91.576C342.594 83.032 340.722 76.456 336.978 71.848C333.33 67.24 328.098 64.936 321.282 64.936C314.466 64.936 309.138 67.24 305.298 71.848C301.554 76.456 299.682 82.936 299.682 91.288C299.682 99.832 301.554 106.504 305.298 111.304C309.138 116.008 314.466 118.36 321.282 118.36ZM430.151 110.728C431.207 110.728 432.119 111.16 432.887 112.024C433.655 112.888 434.039 113.992 434.039 115.336C434.039 117.736 432.359 119.944 428.999 121.96C425.543 123.976 421.895 125.512 418.055 126.568C414.215 127.528 410.471 128.008 406.823 128.008C395.975 128.008 387.383 124.792 381.047 118.36C374.807 111.928 371.687 103.048 371.687 91.72C371.687 84.52 373.079 78.184 375.863 72.712C378.647 67.144 382.535 62.824 387.527 59.752C392.615 56.68 398.375 55.144 404.807 55.144C413.927 55.144 421.175 58.12 426.551 64.072C431.927 70.024 434.615 78.088 434.615 88.264C434.615 90.184 434.231 91.576 433.463 92.44C432.695 93.304 431.447 93.736 429.719 93.736H383.351C384.215 110.248 392.039 118.504 406.823 118.504C410.567 118.504 413.783 118.024 416.471 117.064C419.159 116.008 422.039 114.616 425.111 112.888C427.607 111.448 429.287 110.728 430.151 110.728ZM404.951 64.216C398.807 64.216 393.863 66.136 390.119 69.976C386.471 73.816 384.311 79.24 383.639 86.248H424.391C424.199 79.144 422.423 73.72 419.063 69.976C415.703 66.136 410.999 64.216 404.951 64.216ZM486.504 55.432C490.536 55.144 492.552 56.776 492.552 60.328C492.552 61.864 492.12 63.112 491.256 64.072C490.392 64.936 488.904 65.464 486.792 65.656L482.472 66.088C476.04 66.664 471.24 68.968 468.072 73C465 76.936 463.464 81.592 463.464 86.968V121.96C463.464 123.88 462.936 125.32 461.88 126.28C460.824 127.24 459.432 127.72 457.704 127.72C455.976 127.72 454.536 127.24 453.384 126.28C452.328 125.224 451.8 123.784 451.8 121.96V61.192C451.8 59.368 452.376 57.976 453.528 57.016C454.68 55.96 456.072 55.432 457.704 55.432C459.24 55.432 460.536 55.96 461.592 57.016C462.648 57.976 463.176 59.32 463.176 61.048V69.112C465.192 64.888 468.024 61.672 471.672 59.464C475.416 57.256 479.688 55.96 484.488 55.576L486.504 55.432Z" fill="#004DFC"/>
<path d="M160.549 128H121.492L144.735 111.937C145.604 111.337 146.2 110.418 146.394 109.38L152.618 76L166.282 120.229C167.475 124.089 164.589 128 160.549 128Z" fill="#004DFC" stroke="black" stroke-width="0.001"/>
</svg>
