<svg width="493" height="196" viewBox="0 0 493 196" fill="none" xmlns="http://www.w3.org/2000/svg">
<path d="M46.224 73.144C54.48 73.144 60.72 75.496 64.944 80.2C69.168 84.808 71.28 91.72 71.28 100.936V139.96C71.28 141.784 70.752 143.224 69.696 144.28C68.64 145.24 67.248 145.72 65.52 145.72C63.696 145.72 62.256 145.24 61.2 144.28C60.144 143.224 59.616 141.784 59.616 139.96V101.224C59.616 94.984 58.32 90.376 55.728 87.4C53.232 84.424 49.2 82.936 43.632 82.936C37.2 82.936 32.064 84.904 28.224 88.84C24.384 92.776 22.464 98.104 22.464 104.824V139.96C22.464 141.784 21.936 143.224 20.88 144.28C19.92 145.24 18.528 145.72 16.704 145.72C14.88 145.72 13.44 145.24 12.384 144.28C11.328 143.224 10.8 141.784 10.8 139.96V48.376C10.8 46.744 11.328 45.4 12.384 44.344C13.536 43.288 14.976 42.76 16.704 42.76C18.528 42.76 19.92 43.288 20.88 44.344C21.936 45.304 22.464 46.648 22.464 48.376V86.104C24.768 81.88 27.984 78.664 32.112 76.456C36.24 74.248 40.944 73.144 46.224 73.144ZM121.732 146.008C115.108 146.008 109.252 144.52 104.164 141.544C99.1718 138.568 95.2838 134.344 92.4998 128.872C89.8118 123.304 88.4678 116.872 88.4678 109.576C88.4678 102.28 89.8118 95.896 92.4998 90.424C95.2838 84.856 99.1718 80.584 104.164 77.608C109.252 74.632 115.108 73.144 121.732 73.144C128.356 73.144 134.212 74.632 139.3 77.608C144.388 80.584 148.276 84.856 150.964 90.424C153.748 95.896 155.14 102.28 155.14 109.576C155.14 116.872 153.748 123.304 150.964 128.872C148.276 134.344 144.388 138.568 139.3 141.544C134.212 144.52 128.356 146.008 121.732 146.008ZM121.732 136.36C128.644 136.36 133.924 134.104 137.572 129.592C141.316 124.984 143.188 118.312 143.188 109.576C143.188 101.032 141.316 94.456 137.572 89.848C133.828 85.144 128.548 82.792 121.732 82.792C114.916 82.792 109.636 85.144 105.892 89.848C102.148 94.456 100.276 101.032 100.276 109.576C100.276 118.216 102.1 124.84 105.748 129.448C109.492 134.056 114.82 136.36 121.732 136.36ZM267.579 77.176C268.539 74.872 270.123 73.72 272.331 73.72C273.771 73.72 275.067 74.2 276.219 75.16C277.371 76.12 277.947 77.32 277.947 78.76C277.947 79.432 277.803 80.152 277.515 80.92L253.611 141.4C253.035 142.648 252.171 143.656 251.019 144.424C249.963 145.096 248.763 145.432 247.419 145.432C246.171 145.432 244.971 145.096 243.819 144.424C242.763 143.656 241.947 142.648 241.371 141.4L221.499 90.856L201.771 141.4C201.291 142.648 200.475 143.656 199.323 144.424C198.171 145.096 196.923 145.432 195.579 145.432C194.331 145.432 193.131 145.096 191.979 144.424C190.827 143.656 189.963 142.648 189.387 141.4L165.483 81.064C165.195 80.296 165.051 79.624 165.051 79.048C165.051 77.512 165.675 76.216 166.923 75.16C168.267 74.104 169.707 73.576 171.243 73.576C173.547 73.576 175.179 74.728 176.139 77.032L195.867 130.168L216.171 77.464C216.747 76.216 217.515 75.256 218.475 74.584C219.531 73.912 220.635 73.576 221.787 73.576C223.035 73.576 224.139 73.912 225.099 74.584C226.155 75.256 226.923 76.216 227.403 77.464L247.707 130.024L267.579 77.176ZM348.354 42.76C350.178 42.76 351.618 43.288 352.674 44.344C353.73 45.4 354.258 46.744 354.258 48.376V139.96C354.258 141.688 353.73 143.08 352.674 144.136C351.618 145.192 350.178 145.72 348.354 145.72C346.53 145.72 345.09 145.192 344.034 144.136C343.074 143.08 342.594 141.688 342.594 139.96V132.184C340.482 136.6 337.362 140.008 333.234 142.408C329.202 144.808 324.45 146.008 318.978 146.008C312.834 146.008 307.41 144.472 302.706 141.4C298.002 138.328 294.354 134.056 291.762 128.584C289.17 123.016 287.874 116.584 287.874 109.288C287.874 102.088 289.17 95.752 291.762 90.28C294.354 84.808 298.002 80.584 302.706 77.608C307.41 74.632 312.834 73.144 318.978 73.144C324.45 73.144 329.202 74.344 333.234 76.744C337.362 79.144 340.482 82.552 342.594 86.968V48.376C342.594 46.648 343.074 45.304 344.034 44.344C345.09 43.288 346.53 42.76 348.354 42.76ZM321.282 136.36C328.098 136.36 333.33 134.056 336.978 129.448C340.722 124.744 342.594 118.12 342.594 109.576C342.594 101.032 340.722 94.456 336.978 89.848C333.33 85.24 328.098 82.936 321.282 82.936C314.466 82.936 309.138 85.24 305.298 89.848C301.554 94.456 299.682 100.936 299.682 109.288C299.682 117.832 301.554 124.504 305.298 129.304C309.138 134.008 314.466 136.36 321.282 136.36ZM430.151 128.728C431.207 128.728 432.119 129.16 432.887 130.024C433.655 130.888 434.039 131.992 434.039 133.336C434.039 135.736 432.359 137.944 428.999 139.96C425.543 141.976 421.895 143.512 418.055 144.568C414.215 145.528 410.471 146.008 406.823 146.008C395.975 146.008 387.383 142.792 381.047 136.36C374.807 129.928 371.687 121.048 371.687 109.72C371.687 102.52 373.079 96.184 375.863 90.712C378.647 85.144 382.535 80.824 387.527 77.752C392.615 74.68 398.375 73.144 404.807 73.144C413.927 73.144 421.175 76.12 426.551 82.072C431.927 88.024 434.615 96.088 434.615 106.264C434.615 108.184 434.231 109.576 433.463 110.44C432.695 111.304 431.447 111.736 429.719 111.736H383.351C384.215 128.248 392.039 136.504 406.823 136.504C410.567 136.504 413.783 136.024 416.471 135.064C419.159 134.008 422.039 132.616 425.111 130.888C427.607 129.448 429.287 128.728 430.151 128.728ZM404.951 82.216C398.807 82.216 393.863 84.136 390.119 87.976C386.471 91.816 384.311 97.24 383.639 104.248H424.391C424.199 97.144 422.423 91.72 419.063 87.976C415.703 84.136 410.999 82.216 404.951 82.216ZM486.504 73.432C490.536 73.144 492.552 74.776 492.552 78.328C492.552 79.864 492.12 81.112 491.256 82.072C490.392 82.936 488.904 83.464 486.792 83.656L482.472 84.088C476.04 84.664 471.24 86.968 468.072 91C465 94.936 463.464 99.592 463.464 104.968V139.96C463.464 141.88 462.936 143.32 461.88 144.28C460.824 145.24 459.432 145.72 457.704 145.72C455.976 145.72 454.536 145.24 453.384 144.28C452.328 143.224 451.8 141.784 451.8 139.96V79.192C451.8 77.368 452.376 75.976 453.528 75.016C454.68 73.96 456.072 73.432 457.704 73.432C459.24 73.432 460.536 73.96 461.592 75.016C462.648 75.976 463.176 77.32 463.176 79.048V87.112C465.192 82.888 468.024 79.672 471.672 77.464C475.416 75.256 479.688 73.96 484.488 73.576L486.504 73.432Z" fill="#004DFC"/>
<path d="M160.376 146H121.5L144.648 129.938C145.514 129.337 146.108 128.419 146.3 127.382L152.5 94L166.111 138.235C167.298 142.094 164.413 146 160.376 146Z" fill="#004DFC" stroke="black" stroke-width="0.001"/>
</svg>
