<svg width="483" height="105" viewBox="0 0 483 105" fill="none" xmlns="http://www.w3.org/2000/svg">
<path d="M36.224 31.144C44.48 31.144 50.72 33.496 54.944 38.2C59.168 42.808 61.28 49.72 61.28 58.936V97.96C61.28 99.784 60.752 101.224 59.696 102.28C58.64 103.24 57.248 103.72 55.52 103.72C53.696 103.72 52.256 103.24 51.2 102.28C50.144 101.224 49.616 99.784 49.616 97.96V59.224C49.616 52.984 48.32 48.376 45.728 45.4C43.232 42.424 39.2 40.936 33.632 40.936C27.2 40.936 22.064 42.904 18.224 46.84C14.384 50.776 12.464 56.104 12.464 62.824V97.96C12.464 99.784 11.936 101.224 10.88 102.28C9.92 103.24 8.528 103.72 6.704 103.72C4.88 103.72 3.44 103.24 2.384 102.28C1.328 101.224 0.8 99.784 0.8 97.96V6.376C0.8 4.744 1.328 3.39999 2.384 2.34399C3.536 1.28799 4.976 0.759995 6.704 0.759995C8.528 0.759995 9.92 1.28799 10.88 2.34399C11.936 3.304 12.464 4.648 12.464 6.376V44.104C14.768 39.88 17.984 36.664 22.112 34.456C26.24 32.248 30.944 31.144 36.224 31.144ZM111.732 104.008C105.108 104.008 99.2518 102.52 94.1638 99.544C89.1718 96.568 85.2838 92.344 82.4998 86.872C79.8118 81.304 78.4678 74.872 78.4678 67.576C78.4678 60.28 79.8118 53.896 82.4998 48.424C85.2838 42.856 89.1718 38.584 94.1638 35.608C99.2518 32.632 105.108 31.144 111.732 31.144C118.356 31.144 124.212 32.632 129.3 35.608C134.388 38.584 138.276 42.856 140.964 48.424C143.748 53.896 145.14 60.28 145.14 67.576C145.14 74.872 143.748 81.304 140.964 86.872C138.276 92.344 134.388 96.568 129.3 99.544C124.212 102.52 118.356 104.008 111.732 104.008ZM111.732 94.36C118.644 94.36 123.924 92.104 127.572 87.592C131.316 82.984 133.188 76.312 133.188 67.576C133.188 59.032 131.316 52.456 127.572 47.848C123.828 43.144 118.548 40.792 111.732 40.792C104.916 40.792 99.6358 43.144 95.8918 47.848C92.1478 52.456 90.2758 59.032 90.2758 67.576C90.2758 76.216 92.0998 82.84 95.7478 87.448C99.4918 92.056 104.82 94.36 111.732 94.36ZM257.579 35.176C258.539 32.872 260.123 31.72 262.331 31.72C263.771 31.72 265.067 32.2 266.219 33.16C267.371 34.12 267.947 35.32 267.947 36.76C267.947 37.432 267.803 38.152 267.515 38.92L243.611 99.4C243.035 100.648 242.171 101.656 241.019 102.424C239.963 103.096 238.763 103.432 237.419 103.432C236.171 103.432 234.971 103.096 233.819 102.424C232.763 101.656 231.947 100.648 231.371 99.4L211.499 48.856L191.771 99.4C191.291 100.648 190.475 101.656 189.323 102.424C188.171 103.096 186.923 103.432 185.579 103.432C184.331 103.432 183.131 103.096 181.979 102.424C180.827 101.656 179.963 100.648 179.387 99.4L155.483 39.064C155.195 38.296 155.051 37.624 155.051 37.048C155.051 35.512 155.675 34.216 156.923 33.16C158.267 32.104 159.707 31.576 161.243 31.576C163.547 31.576 165.179 32.728 166.139 35.032L185.867 88.168L206.171 35.464C206.747 34.216 207.515 33.256 208.475 32.584C209.531 31.912 210.635 31.576 211.787 31.576C213.035 31.576 214.139 31.912 215.099 32.584C216.155 33.256 216.923 34.216 217.403 35.464L237.707 88.024L257.579 35.176ZM338.354 0.759995C340.178 0.759995 341.618 1.28799 342.674 2.34399C343.73 3.39999 344.258 4.744 344.258 6.376V97.96C344.258 99.688 343.73 101.08 342.674 102.136C341.618 103.192 340.178 103.72 338.354 103.72C336.53 103.72 335.09 103.192 334.034 102.136C333.074 101.08 332.594 99.688 332.594 97.96V90.184C330.482 94.6 327.362 98.008 323.234 100.408C319.202 102.808 314.45 104.008 308.978 104.008C302.834 104.008 297.41 102.472 292.706 99.4C288.002 96.328 284.354 92.056 281.762 86.584C279.17 81.016 277.874 74.584 277.874 67.288C277.874 60.088 279.17 53.752 281.762 48.28C284.354 42.808 288.002 38.584 292.706 35.608C297.41 32.632 302.834 31.144 308.978 31.144C314.45 31.144 319.202 32.344 323.234 34.744C327.362 37.144 330.482 40.552 332.594 44.968V6.376C332.594 4.648 333.074 3.304 334.034 2.34399C335.09 1.28799 336.53 0.759995 338.354 0.759995ZM311.282 94.36C318.098 94.36 323.33 92.056 326.978 87.448C330.722 82.744 332.594 76.12 332.594 67.576C332.594 59.032 330.722 52.456 326.978 47.848C323.33 43.24 318.098 40.936 311.282 40.936C304.466 40.936 299.138 43.24 295.298 47.848C291.554 52.456 289.682 58.936 289.682 67.288C289.682 75.832 291.554 82.504 295.298 87.304C299.138 92.008 304.466 94.36 311.282 94.36ZM420.151 86.728C421.207 86.728 422.119 87.16 422.887 88.024C423.655 88.888 424.039 89.992 424.039 91.336C424.039 93.736 422.359 95.944 418.999 97.96C415.543 99.976 411.895 101.512 408.055 102.568C404.215 103.528 400.471 104.008 396.823 104.008C385.975 104.008 377.383 100.792 371.047 94.36C364.807 87.928 361.687 79.048 361.687 67.72C361.687 60.52 363.079 54.184 365.863 48.712C368.647 43.144 372.535 38.824 377.527 35.752C382.615 32.68 388.375 31.144 394.807 31.144C403.927 31.144 411.175 34.12 416.551 40.072C421.927 46.024 424.615 54.088 424.615 64.264C424.615 66.184 424.231 67.576 423.463 68.44C422.695 69.304 421.447 69.736 419.719 69.736H373.351C374.215 86.248 382.039 94.504 396.823 94.504C400.567 94.504 403.783 94.024 406.471 93.064C409.159 92.008 412.039 90.616 415.111 88.888C417.607 87.448 419.287 86.728 420.151 86.728ZM394.951 40.216C388.807 40.216 383.863 42.136 380.119 45.976C376.471 49.816 374.311 55.24 373.639 62.248H414.391C414.199 55.144 412.423 49.72 409.063 45.976C405.703 42.136 400.999 40.216 394.951 40.216ZM476.504 31.432C480.536 31.144 482.552 32.776 482.552 36.328C482.552 37.864 482.12 39.112 481.256 40.072C480.392 40.936 478.904 41.464 476.792 41.656L472.472 42.088C466.04 42.664 461.24 44.968 458.072 49C455 52.936 453.464 57.592 453.464 62.968V97.96C453.464 99.88 452.936 101.32 451.88 102.28C450.824 103.24 449.432 103.72 447.704 103.72C445.976 103.72 444.536 103.24 443.384 102.28C442.328 101.224 441.8 99.784 441.8 97.96V37.192C441.8 35.368 442.376 33.976 443.528 33.016C444.68 31.96 446.072 31.432 447.704 31.432C449.24 31.432 450.536 31.96 451.592 33.016C452.648 33.976 453.176 35.32 453.176 37.048V45.112C455.192 40.888 458.024 37.672 461.672 35.464C465.416 33.256 469.688 31.96 474.488 31.576L476.504 31.432Z" fill="#004DFC"/>
<path d="M150.376 104H111.5L134.648 87.9381C135.514 87.3371 136.108 86.4186 136.3 85.3821L142.5 52L156.111 96.2355C157.298 100.094 154.413 104 150.376 104Z" fill="#004DFC" stroke="black" stroke-width="0.001"/>
</svg>
