<svg width="679" height="105" viewBox="0 0 679 105" fill="none" xmlns="http://www.w3.org/2000/svg">
<path d="M89.856 0.759995C93.216 0.759995 95.904 1.768 97.92 3.784C99.936 5.8 100.944 8.488 100.944 11.848V92.632C100.944 95.992 99.936 98.728 97.92 100.84C95.904 102.856 93.216 103.864 89.856 103.864C86.496 103.864 83.808 102.856 81.792 100.84C79.872 98.824 78.912 96.088 78.912 92.632V60.376H32.112V92.632C32.112 95.992 31.104 98.728 29.088 100.84C27.072 102.856 24.432 103.864 21.168 103.864C17.808 103.864 15.12 102.856 13.104 100.84C11.088 98.824 10.08 96.088 10.08 92.632V11.848C10.08 8.488 11.088 5.8 13.104 3.784C15.12 1.768 17.808 0.759995 21.168 0.759995C24.528 0.759995 27.168 1.768 29.088 3.784C31.104 5.8 32.112 8.488 32.112 11.848V42.52H78.912V11.848C78.912 8.488 79.872 5.8 81.792 3.784C83.808 1.768 86.496 0.759995 89.856 0.759995ZM167.83 104.296C157.75 104.296 148.966 102.184 141.478 97.96C134.086 93.64 128.374 87.592 124.342 79.816C120.31 71.944 118.294 62.728 118.294 52.168C118.294 41.608 120.31 32.44 124.342 24.664C128.374 16.792 134.086 10.744 141.478 6.52C148.966 2.29599 157.75 0.183993 167.83 0.183993C177.91 0.183993 186.646 2.29599 194.038 6.52C201.526 10.744 207.286 16.792 211.318 24.664C215.35 32.44 217.366 41.608 217.366 52.168C217.366 62.728 215.35 71.944 211.318 79.816C207.286 87.592 201.526 93.64 194.038 97.96C186.646 102.184 177.91 104.296 167.83 104.296ZM167.83 86.872C176.278 86.872 182.902 83.896 187.702 77.944C192.598 71.992 195.046 63.4 195.046 52.168C195.046 40.936 192.646 32.392 187.846 26.536C183.046 20.584 176.374 17.608 167.83 17.608C159.286 17.608 152.614 20.584 147.814 26.536C143.11 32.392 140.758 40.936 140.758 52.168C140.758 63.4 143.158 71.992 147.958 77.944C152.758 83.896 159.382 86.872 167.83 86.872ZM357.561 7.52799C358.425 5.22399 359.721 3.49599 361.449 2.34399C363.273 1.096 365.289 0.471998 367.497 0.471998C370.281 0.471998 372.633 1.336 374.553 3.064C376.569 4.79199 377.577 7.14399 377.577 10.12C377.577 11.56 377.289 13.144 376.713 14.872L346.761 96.808C345.897 99.112 344.361 100.936 342.153 102.28C340.041 103.528 337.689 104.152 335.097 104.152C332.505 104.152 330.153 103.528 328.041 102.28C325.929 100.936 324.441 99.112 323.577 96.808L302.121 36.184L280.089 96.808C279.225 99.112 277.737 100.936 275.625 102.28C273.513 103.528 271.161 104.152 268.569 104.152C266.073 104.152 263.721 103.528 261.513 102.28C259.401 100.936 257.913 99.112 257.049 96.808L227.097 14.872C226.521 13.24 226.233 11.704 226.233 10.264C226.233 7.288 227.289 4.936 229.401 3.208C231.513 1.384 234.009 0.471998 236.889 0.471998C239.193 0.471998 241.257 1.096 243.081 2.34399C245.001 3.49599 246.393 5.22399 247.257 7.52799L269.433 71.32L292.473 7.816C293.337 5.51199 294.681 3.73599 296.505 2.488C298.425 1.24 300.441 0.615996 302.553 0.615996C304.761 0.615996 306.777 1.24 308.601 2.488C310.425 3.73599 311.769 5.55999 312.633 7.96L334.665 72.472L357.561 7.52799ZM402.811 103C399.451 103 396.859 102.088 395.035 100.264C393.211 98.44 392.299 95.848 392.299 92.488V11.992C392.299 8.63199 393.211 6.03999 395.035 4.21599C396.859 2.39199 399.451 1.47999 402.811 1.47999H431.755C442.795 1.47999 452.299 3.49599 460.267 7.52799C468.235 11.56 474.331 17.368 478.555 24.952C482.779 32.536 484.891 41.608 484.891 52.168C484.891 62.728 482.779 71.848 478.555 79.528C474.427 87.112 468.379 92.92 460.411 96.952C452.443 100.984 442.891 103 431.755 103H402.811ZM430.171 84.856C451.771 84.856 462.571 73.96 462.571 52.168C462.571 30.472 451.771 19.624 430.171 19.624H414.763V84.856H430.171ZM512.639 103C509.279 103 506.687 102.088 504.863 100.264C503.039 98.44 502.127 95.848 502.127 92.488V11.992C502.127 8.63199 503.039 6.03999 504.863 4.21599C506.687 2.39199 509.279 1.47999 512.639 1.47999H563.615C570.719 1.47999 574.271 4.35999 574.271 10.12C574.271 15.976 570.719 18.904 563.615 18.904H524.015V42.664H560.735C567.839 42.664 571.391 45.592 571.391 51.448C571.391 57.208 567.839 60.088 560.735 60.088H524.015V85.576H563.615C570.719 85.576 574.271 88.504 574.271 94.36C574.271 100.12 570.719 103 563.615 103H512.639ZM670.718 88.744C672.158 90.856 672.878 92.92 672.878 94.936C672.878 97.624 671.774 99.832 669.566 101.56C667.454 103.288 664.958 104.152 662.078 104.152C660.254 104.152 658.478 103.72 656.75 102.856C655.022 101.992 653.582 100.648 652.43 98.824L633.422 70.6C631.79 68.104 630.062 66.328 628.238 65.272C626.414 64.12 624.11 63.544 621.326 63.544H609.662V92.632C609.662 96.088 608.654 98.824 606.638 100.84C604.718 102.856 602.078 103.864 598.718 103.864C595.262 103.864 592.526 102.856 590.51 100.84C588.494 98.824 587.486 96.088 587.486 92.632V11.992C587.486 8.63199 588.398 6.03999 590.222 4.21599C592.046 2.39199 594.638 1.47999 597.998 1.47999H634.142C646.046 1.47999 655.022 4.11999 661.07 9.39999C667.214 14.584 670.286 22.12 670.286 32.008C670.286 39.784 668.126 46.264 663.806 51.448C659.486 56.632 653.39 60.04 645.518 61.672C648.398 62.248 650.942 63.4 653.15 65.128C655.454 66.76 657.662 69.16 659.774 72.328L670.718 88.744ZM630.83 46.552C637.262 46.552 641.918 45.448 644.798 43.24C647.678 40.936 649.118 37.384 649.118 32.584C649.118 27.688 647.678 24.136 644.798 21.928C641.918 19.72 637.262 18.616 630.83 18.616H609.374V46.552H630.83Z" fill="#000000"/>
<path d="M229.696 104H174L204.546 75.0869C205.152 74.5128 205.564 73.7632 205.723 72.9433L213.855 31L235.392 96.1159C236.676 99.9985 233.785 104 229.696 104Z" fill="#000000" stroke="black" stroke-width="0.001"/>
</svg>
